HIERARCHY
ROOT Hips
{
	OFFSET 0.000000 83.214638 0.000000
	CHANNELS 6 Xposition Yposition Zposition Xrotation Yrotation Zrotation
	JOINT Pelvis
	{
		OFFSET 0.000000 0.000000 0.000000
		CHANNELS 3 Xrotation Yrotation Zrotation
		JOINT LeftUpLeg
		{
			OFFSET 8.479700 -4.795502 -0.379100
			CHANNELS 3 Xrotation Yrotation Zrotation
			JOINT LeftLeg
			{
				OFFSET 0.024144 -32.555107 0.112900
				CHANNELS 3 Xrotation Yrotation Zrotation
				JOINT LeftFoot
				{
					OFFSET -0.024144 -32.638630 -3.012600
					CHANNELS 3 Xrotation Yrotation Zrotation
					JOINT LeftToeBase
					{
						OFFSET 0.970200 -13.225400 11.864200
						CHANNELS 3 Xrotation Yrotation Zrotation
						End Site
						{
							OFFSET 0.000000 12.319262 0.000000
						}
					}
					JOINT LFootTongue
					{
						OFFSET 1.142400 -1.059800 6.665200
						CHANNELS 3 Xrotation Yrotation Zrotation
						End Site
						{
							OFFSET 0.000000 12.319262 0.000000
						}
					}
				}
				JOINT LeftPantLeg
				{
					OFFSET 0.918482 -16.533964 -2.284700
					CHANNELS 3 Xrotation Yrotation Zrotation
					End Site
					{
						OFFSET 0.350399 24.744368 0.000000
					}
				}
			}
		}
		JOINT RightUpLeg
		{
			OFFSET -8.479700 -4.795502 -0.379100
			CHANNELS 3 Xrotation Yrotation Zrotation
			JOINT RightLeg
			{
				OFFSET -0.023144 -32.555092 0.112900
				CHANNELS 3 Xrotation Yrotation Zrotation
				JOINT RightFoot
				{
					OFFSET 0.023144 -32.638641 -3.012700
					CHANNELS 3 Xrotation Yrotation Zrotation
					JOINT RightToeBase
					{
						OFFSET -0.970200 -13.225400 11.864200
						CHANNELS 3 Xrotation Yrotation Zrotation
						End Site
						{
							OFFSET 0.000000 12.319244 0.000000
						}
					}
					JOINT RFootTongue
					{
						OFFSET -1.142200 -1.059800 6.665200
						CHANNELS 3 Xrotation Yrotation Zrotation
						End Site
						{
							OFFSET 0.000000 12.319243 0.000000
						}
					}
				}
				JOINT RightPantLeg
				{
					OFFSET -0.919482 -16.533978 -2.284800
					CHANNELS 3 Xrotation Yrotation Zrotation
					End Site
					{
						OFFSET -0.350400 24.744419 0.000000
					}
				}
			}
		}
	}
	JOINT Spine
	{
		OFFSET 0.000000 7.722000 1.166200
		CHANNELS 3 Xrotation Yrotation Zrotation
		JOINT Spine1
		{
			OFFSET 0.000000 12.024101 0.248800
			CHANNELS 3 Xrotation Yrotation Zrotation
			JOINT Spine2
			{
				OFFSET 0.000000 11.502998 -0.491200
				CHANNELS 3 Xrotation Yrotation Zrotation
				JOINT Neck
				{
					OFFSET 0.000000 18.430702 -3.123100
					CHANNELS 3 Xrotation Yrotation Zrotation
					JOINT Head
					{
						OFFSET 0.000000 9.051102 1.034000
						CHANNELS 3 Xrotation Yrotation Zrotation
						JOINT HairB
						{
							OFFSET 0.208400 24.786102 24.822300
							CHANNELS 3 Xrotation Yrotation Zrotation
							End Site
							{
								OFFSET 0.000000 32.263779 0.000000
							}
						}
						JOINT HairA
						{
							OFFSET -7.081100 24.428299 23.196600
							CHANNELS 3 Xrotation Yrotation Zrotation
							End Site
							{
								OFFSET 0.000000 32.263779 0.000000
							}
						}
						JOINT Hat
						{
							OFFSET 16.728800 15.048294 -15.439601
							CHANNELS 3 Xrotation Yrotation Zrotation
							End Site
							{
								OFFSET 0.000000 32.263779 0.000000
							}
						}
					}
				}
				JOINT LeftShoulder
				{
					OFFSET 6.197800 13.665199 -4.064700
					CHANNELS 3 Xrotation Yrotation Zrotation
					JOINT LeftArm
					{
						OFFSET 7.778100 -0.187103 -1.709300
						CHANNELS 3 Xrotation Yrotation Zrotation
						JOINT LeftForeArm
						{
							OFFSET 22.049376 0.000000 0.000000
							CHANNELS 3 Xrotation Yrotation Zrotation
							JOINT LeftHand
							{
								OFFSET 23.009392 0.000000 0.000000
								CHANNELS 3 Xrotation Yrotation Zrotation
								JOINT LeftHandThumb1
								{
									OFFSET 3.507191 -2.063065 3.133727
									CHANNELS 3 Xrotation Yrotation Zrotation
									JOINT LeftHandThumb2
									{
										OFFSET 3.101337 -1.790558 1.790558
										CHANNELS 3 Xrotation Yrotation Zrotation
										JOINT LeftHandThumb3
										{
											OFFSET 3.058640 -1.765907 1.765906
											CHANNELS 3 Xrotation Yrotation Zrotation
											End Site
											{
												OFFSET -0.415260 3.926476 -0.049563
											}
										}
									}
								}
								JOINT LeftHandIndex1
								{
									OFFSET 11.334419 -0.901459 3.706815
									CHANNELS 3 Xrotation Yrotation Zrotation
									JOINT LeftHandIndex2
									{
										OFFSET 3.283112 0.000000 0.000000
										CHANNELS 3 Xrotation Yrotation Zrotation
										JOINT LeftHandIndex3
										{
											OFFSET 3.323853 0.000000 0.000000
											CHANNELS 3 Xrotation Yrotation Zrotation
											End Site
											{
												OFFSET -1.135597 3.097809 0.402452
											}
										}
									}
								}
								JOINT LeftHandMiddle1
								{
									OFFSET 11.335861 0.000000 0.000000
									CHANNELS 3 Xrotation Yrotation Zrotation
									JOINT LeftHandMiddle2
									{
										OFFSET 3.410492 0.000000 0.000000
										CHANNELS 3 Xrotation Yrotation Zrotation
										JOINT LeftHandMiddle3
										{
											OFFSET 3.312172 0.000000 0.000000
											CHANNELS 3 Xrotation Yrotation Zrotation
											End Site
											{
												OFFSET -1.150200 3.080154 0.400270
											}
										}
									}
								}
								JOINT LeftHandRing1
								{
									OFFSET 11.514786 -0.013176 -3.003090
									CHANNELS 3 Xrotation Yrotation Zrotation
									JOINT LeftHandRing2
									{
										OFFSET 3.053307 0.000000 0.000000
										CHANNELS 3 Xrotation Yrotation Zrotation
										JOINT LeftHandRing3
										{
											OFFSET 3.295807 0.000000 0.000000
											CHANNELS 3 Xrotation Yrotation Zrotation
											End Site
											{
												OFFSET -1.281006 3.013344 0.375733
											}
										}
									}
								}
								JOINT LeftHandPinky1
								{
									OFFSET 10.518692 -0.960396 -5.730441
									CHANNELS 3 Xrotation Yrotation Zrotation
									JOINT LeftHandPinky2
									{
										OFFSET 2.861649 0.000000 0.000000
										CHANNELS 3 Xrotation Yrotation Zrotation
										JOINT LeftHandPinky3
										{
											OFFSET 2.863380 0.000000 0.000000
											CHANNELS 3 Xrotation Yrotation Zrotation
											End Site
											{
												OFFSET -0.843597 2.711159 0.369971
											}
										}
									}
								}
							}
							JOINT LSleeve
							{
								OFFSET 6.676277 -0.344902 -1.011730
								CHANNELS 3 Xrotation Yrotation Zrotation
								End Site
								{
									OFFSET 0.000000 14.885353 0.000000
								}
							}
						}
					}
				}
				JOINT RightShoulder
				{
					OFFSET -6.197800 13.665199 -4.064700
					CHANNELS 3 Xrotation Yrotation Zrotation
					JOINT RightArm
					{
						OFFSET -7.778100 -0.187103 -1.709300
						CHANNELS 3 Xrotation Yrotation Zrotation
						JOINT RightForeArm
						{
							OFFSET -22.049376 0.000000 0.000000
							CHANNELS 3 Xrotation Yrotation Zrotation
							JOINT RightHand
							{
								OFFSET -23.009392 0.000000 0.000000
								CHANNELS 3 Xrotation Yrotation Zrotation
								JOINT RightHandThumb1
								{
									OFFSET -3.507191 -2.063065 3.133727
									CHANNELS 3 Xrotation Yrotation Zrotation
									JOINT RightHandThumb2
									{
										OFFSET -3.101337 -1.790558 1.790558
										CHANNELS 3 Xrotation Yrotation Zrotation
										JOINT RightHandThumb3
										{
											OFFSET -3.058640 -1.765907 1.765906
											CHANNELS 3 Xrotation Yrotation Zrotation
											End Site
											{
												OFFSET 0.415260 3.926476 -0.049563
											}
										}
									}
								}
								JOINT RightHandIndex1
								{
									OFFSET -11.334419 -0.901459 3.706815
									CHANNELS 3 Xrotation Yrotation Zrotation
									JOINT RightHandIndex2
									{
										OFFSET -3.283112 0.000000 0.000000
										CHANNELS 3 Xrotation Yrotation Zrotation
										JOINT RightHandIndex3
										{
											OFFSET -3.323853 0.000000 0.000000
											CHANNELS 3 Xrotation Yrotation Zrotation
											End Site
											{
												OFFSET 1.135597 3.097809 0.402452
											}
										}
									}
								}
								JOINT RightHandMiddle1
								{
									OFFSET -11.335861 0.000000 0.000000
									CHANNELS 3 Xrotation Yrotation Zrotation
									JOINT RightHandMiddle2
									{
										OFFSET -3.410492 0.000000 0.000000
										CHANNELS 3 Xrotation Yrotation Zrotation
										JOINT RightHandMiddle3
										{
											OFFSET -3.312172 0.000000 0.000000
											CHANNELS 3 Xrotation Yrotation Zrotation
											End Site
											{
												OFFSET 1.150200 3.080154 0.400270
											}
										}
									}
								}
								JOINT RightHandRing1
								{
									OFFSET -11.514786 -0.013176 -3.003090
									CHANNELS 3 Xrotation Yrotation Zrotation
									JOINT RightHandRing2
									{
										OFFSET -3.053307 0.000000 0.000000
										CHANNELS 3 Xrotation Yrotation Zrotation
										JOINT RightHandRing3
										{
											OFFSET -3.295807 0.000000 0.000000
											CHANNELS 3 Xrotation Yrotation Zrotation
											End Site
											{
												OFFSET 1.281006 3.013344 0.375733
											}
										}
									}
								}
								JOINT RightHandPinky1
								{
									OFFSET -10.518692 -0.960396 -5.730441
									CHANNELS 3 Xrotation Yrotation Zrotation
									JOINT RightHandPinky2
									{
										OFFSET -2.861649 0.000000 0.000000
										CHANNELS 3 Xrotation Yrotation Zrotation
										JOINT RightHandPinky3
										{
											OFFSET -2.863380 0.000000 0.000000
											CHANNELS 3 Xrotation Yrotation Zrotation
											End Site
											{
												OFFSET 0.843597 2.711159 0.369971
											}
										}
									}
								}
							}
							JOINT RSleeve
							{
								OFFSET -6.676277 -0.344902 -1.011730
								CHANNELS 3 Xrotation Yrotation Zrotation
								End Site
								{
									OFFSET 0.000000 14.885353 0.000000
								}
							}
						}
					}
				}
				JOINT Backpack
				{
					OFFSET 0.000000 -2.471497 36.677502
					CHANNELS 3 Xrotation Yrotation Zrotation
					End Site
					{
						OFFSET 0.000000 20.427315 0.000000
					}
				}
				JOINT Hood
				{
					OFFSET 0.000000 18.754097 -10.431000
					CHANNELS 3 Xrotation Yrotation Zrotation
					JOINT Hood1
					{
						OFFSET 0.000000 -5.011002 -7.685901
						CHANNELS 3 Xrotation Yrotation Zrotation
						End Site
						{
							OFFSET 0.000000 9.175140 0.000000
						}
					}
				}
				JOINT LHoodieString
				{
					OFFSET 5.250500 16.397697 3.089900
					CHANNELS 3 Xrotation Yrotation Zrotation
					JOINT LHoodieString1
					{
						OFFSET 0.257700 -6.364304 3.694600
						CHANNELS 3 Xrotation Yrotation Zrotation
						JOINT LHoodieString2
						{
							OFFSET 0.000000 -9.643799 2.679100
							CHANNELS 3 Xrotation Yrotation Zrotation
							End Site
							{
								OFFSET 0.000000 10.009018 0.000000
							}
						}
					}
				}
				JOINT RHoodieString
				{
					OFFSET -5.250500 16.397697 3.089900
					CHANNELS 3 Xrotation Yrotation Zrotation
					JOINT RHoodieString1
					{
						OFFSET -0.257700 -6.364304 3.694600
						CHANNELS 3 Xrotation Yrotation Zrotation
						JOINT RHoodieString2
						{
							OFFSET 0.000000 -9.643799 2.679100
							CHANNELS 3 Xrotation Yrotation Zrotation
							End Site
							{
								OFFSET 0.000000 10.009018 0.000000
							}
						}
					}
				}
			}
			JOINT LBackpack_Strap
			{
				OFFSET 15.223200 -7.719803 -6.610900
				CHANNELS 3 Xrotation Yrotation Zrotation
				End Site
				{
					OFFSET 0.000000 16.040596 0.000000
				}
			}
			JOINT RBackpack_Strap
			{
				OFFSET -15.223000 -7.719803 -6.610900
				CHANNELS 3 Xrotation Yrotation Zrotation
				End Site
				{
					OFFSET 0.000000 16.040596 0.000000
				}
			}
		}
	}
	JOINT BoyFacialAnim_Joint
	{
		OFFSET 1.000000 -82.208099 -1.550900
		CHANNELS 3 Xrotation Yrotation Zrotation
		End Site
		{
			OFFSET 0.000000 30.012791 0.000000
		}
	}
}
MOTION
Frames: 4
Frame Time: 0.033333
0.282612 77.255905 0.976389 11.003366 -1.715758 -3.316300 -0.000000 0.000000 0.000000 8.466671 -13.623893 -5.409811 25.493840 -0.182583 -0.949477 15.178927 13.974617 -12.114176 -0.000000 0.000000 -0.000001 -0.000000 0.000000 -0.000000 -0.000001 -0.000001 -0.000000 -54.057915 -1.915935 2.918661 31.536817 0.656446 1.199303 -2.318205 -2.120558 4.493640 -0.000000 -0.000000 0.000000 -0.000000 -0.000000 0.000000 -0.000000 0.000000 0.000000 0.215852 -1.400401 0.496209 0.439994 -3.058645 0.864647 0.439995 -3.058645 0.864646 2.012265 -0.587366 3.652304 -13.004307 5.243127 2.138771 0.000000 0.000000 -0.000000 0.000000 0.000000 -0.000000 0.000000 0.000000 -0.000000 0.000001 -0.000014 0.000278 -31.333063 -42.160193 -33.709186 -0.032832 -48.388458 -0.014858 20.090610 5.045652 47.794519 -23.446629 2.533876 -24.766853 3.875746 25.403345 11.965071 0.000002 -0.000000 0.000001 -3.784805 -0.628420 -23.544314 0.081530 0.366321 -19.280909 0.000001 -0.000003 -0.000002 -1.788902 -0.288372 -28.603461 -0.770397 -2.556491 -33.084494 0.000002 -0.000002 -0.000002 0.611656 3.136906 -35.332371 -1.624840 -3.640040 -48.346203 0.000000 0.000001 0.000003 0.538850 -0.096021 -42.998056 -0.489629 -2.581226 -22.390572 0.000001 -0.000001 0.000001 -0.000002 0.000001 0.000001 0.000001 -0.000013 0.000289 -17.080751 20.736794 30.537735 -0.049822 61.594858 -0.007352 26.883759 23.049962 -22.075339 -21.937354 -8.788872 16.320372 2.703625 -14.392385 -4.028000 0.000002 -0.000001 0.000000 -7.426927 -2.089419 12.600313 0.449761 -1.295860 35.266275 -0.000002 -0.000001 0.000003 -3.830313 0.458485 29.375496 -0.811495 2.474216 47.493522 0.000001 -0.000002 -0.000001 -1.375978 -5.419413 43.850163 -3.266796 5.365864 58.251651 0.000001 0.000001 0.000002 -6.916541 -10.122901 53.511821 -4.927514 9.172869 66.121135 0.000000 -0.000001 0.000000 0.000002 -0.000001 -0.000001 0.000001 -0.000000 -0.000000 0.000001 -0.000000 -0.000000 0.000001 -0.000000 -0.000000 0.000001 -0.000000 -0.000000 0.000001 -0.000000 0.000000 0.000001 0.000000 -0.000000 0.000001 -0.000000 -0.000000 0.000001 -0.000000 0.000000 0.000001 0.000000 -0.000000 -0.000000 0.000000 -0.000000 -0.000000 0.000000 -0.000000 -0.000000 0.000000 0.000000 
0.702967 78.070084 11.522351 10.987889 -6.028374 -2.136002 -0.000000 0.000000 -0.000000 3.436522 -8.322790 -9.423294 36.984805 -0.583957 -1.403546 27.784998 8.893960 -3.113491 -0.000000 -0.000001 -0.000000 -0.000000 -0.000001 0.000000 -0.000003 0.000000 0.000000 -46.328791 -4.051482 5.179237 27.325637 0.206139 0.990009 -5.836172 3.011569 3.685722 -0.000001 -0.000000 0.000000 -0.000001 -0.000000 0.000000 -0.000000 -0.000001 -0.000000 0.353086 -1.085248 0.639727 0.692226 -2.232552 0.368803 0.692225 -2.232555 0.368803 2.035986 -0.513500 3.716285 -15.328621 5.552087 2.165836 0.000000 0.000000 0.000000 0.000000 0.000000 0.000000 0.000000 0.000000 0.000000 0.000001 -0.000014 0.000278 -29.305152 -40.080786 -33.668622 -0.040617 -47.111517 -0.019386 26.440478 1.208158 41.611620 -23.566231 2.313204 -24.823402 2.651366 26.103554 10.035111 0.000000 -0.000001 -0.000001 -3.719455 -0.388471 -25.322532 0.083761 0.370159 -19.532990 -0.000000 -0.000002 -0.000004 -1.685455 -0.222832 -27.829456 -0.778851 -2.569289 -33.272577 -0.000000 0.000002 0.000001 0.272359 2.720650 -34.503896 -1.625949 -3.641055 -48.364522 -0.000002 0.000000 -0.000000 0.327100 -0.256926 -41.254418 -0.490754 -2.584122 -22.417118 0.000001 0.000001 0.000002 -0.000001 0.000002 0.000001 0.000001 -0.000013 0.000289 -25.984032 22.120249 34.139113 -0.060838 59.739259 0.004582 26.233459 26.056972 -21.728316 -21.358447 -9.360659 16.122942 2.598388 -14.568478 -4.063552 -0.000000 0.000001 0.000001 -7.392279 -2.216137 12.447253 0.458829 -1.307612 35.657286 -0.000001 0.000000 0.000004 -3.695739 0.232242 29.259619 -0.804525 2.467816 47.340243 0.000000 0.000000 -0.000000 -1.303046 -5.505200 43.716861 -3.262675 5.363328 58.206455 -0.000003 -0.000002 0.000002 -7.017581 -10.073409 52.991777 -4.963171 9.188239 66.349113 0.000000 -0.000001 -0.000002 -0.000000 -0.000001 -0.000000 -0.000001 -0.000000 -0.000000 -0.000001 -0.000000 -0.000000 -0.000001 -0.000000 -0.000000 -0.000001 -0.000000 -0.000000 -0.000001 -0.000000 -0.000000 -0.000001 -0.000001 0.000000 -0.000001 -0.000000 -0.000000 -0.000001 -0.000000 -0.000000 -0.000001 -0.000001 0.000000 -0.000001 -0.000000 -0.000000 -0.000001 -0.000000 -0.000000 -0.000000 0.000000 -0.000000 
0.615778 78.660095 21.617500 10.905009 -9.110414 -1.545914 0.000000 -0.000000 -0.000000 -5.621360 1.715991 -7.811158 55.462307 -1.223081 -2.060665 28.388921 4.951455 7.805823 -0.000000 -0.000000 -0.000000 -0.000000 -0.000000 0.000000 0.000001 0.000001 -0.000000 -41.048716 -6.100018 7.667937 28.574472 -0.784191 0.802073 -7.717695 9.271515 -3.948209 -0.000000 0.000000 0.000000 -0.000000 0.000000 0.000000 -0.000000 -0.000001 -0.000000 0.755205 -0.477324 0.825825 1.496699 -0.776250 -0.093612 1.496694 -0.776245 -0.093612 1.769796 -0.562327 3.480973 -19.735796 4.998913 2.334091 -0.000000 -0.000000 -0.000000 -0.000000 -0.000000 -0.000000 -0.000000 -0.000000 -0.000000 0.000002 -0.000014 0.000277 -26.404215 -37.642924 -33.155111 -0.033830 -44.570638 -0.000489 35.038703 0.487755 39.056292 -23.058150 3.179288 -24.550234 1.955659 26.646793 9.100635 0.000001 0.000001 0.000000 -3.475033 0.140151 -27.075088 0.078374 0.360920 -18.928676 -0.000001 0.000000 -0.000002 -1.623668 -0.312541 -26.056799 -0.769238 -2.554448 -33.055527 0.000002 0.000001 -0.000003 0.325859 2.873989 -33.574239 -1.587596 -3.606887 -47.758691 -0.000001 0.000001 0.000003 0.768661 0.305520 -40.653788 -0.472172 -2.540275 -22.008961 0.000000 -0.000000 -0.000004 0.000001 -0.000000 -0.000001 0.000002 -0.000013 0.000289 -36.012487 22.646141 38.977796 -0.043366 57.707981 -0.013404 25.562929 28.307166 -23.438569 -20.310510 -10.813887 15.423988 2.174444 -15.265775 -4.216692 0.000002 0.000001 -0.000000 -7.336198 -2.390805 11.967985 0.473088 -1.325751 36.266320 0.000001 0.000001 0.000004 -3.396754 -0.270458 28.972051 -0.800136 2.463752 47.243903 0.000000 0.000001 0.000002 -1.126335 -5.701832 43.552162 -3.274801 5.370785 58.338941 -0.000000 0.000000 0.000004 -6.923886 -10.173438 52.402960 -5.036761 9.219488 66.817241 -0.000001 0.000002 0.000001 0.000001 0.000000 0.000000 0.000001 0.000000 -0.000000 0.000001 0.000000 -0.000000 0.000001 0.000000 -0.000000 0.000001 0.000000 -0.000000 0.000001 0.000000 -0.000000 -0.000001 0.000000 -0.000000 0.000001 0.000000 -0.000000 0.000001 0.000000 -0.000000 -0.000001 0.000000 -0.000000 -0.000000 -0.000001 0.000000 -0.000000 -0.000001 0.000000 0.000000 -0.000000 -0.000000 
0.366780 77.989792 31.394516 11.900053 -10.682208 -1.135384 0.000001 0.000000 -0.000000 -20.565365 8.119951 -0.919044 75.721130 -1.651957 -2.633366 19.149766 4.884306 7.726498 0.000000 -0.000000 0.000001 0.000000 -0.000000 0.000001 0.000001 0.000000 0.000000 -39.358176 -3.879162 8.618968 37.778736 -1.649141 1.158815 -17.214220 9.589422 -5.671921 -0.000000 -0.000000 0.000000 -0.000000 -0.000000 0.000000 -0.000001 0.000001 0.000001 1.074863 0.328283 0.957661 2.165890 0.924373 -0.298842 2.165888 0.924370 -0.298842 1.170367 -0.676229 2.853129 -22.577224 3.806663 2.601457 -0.000000 -0.000000 -0.000000 -0.000000 -0.000000 -0.000000 -0.000000 -0.000000 -0.000000 0.000001 -0.000013 0.000278 -23.296018 -36.832611 -32.219816 -0.027625 -39.903994 0.023813 31.903124 -4.567932 41.528643 -22.008398 5.052261 -24.035092 2.656748 26.540969 10.420774 0.000000 -0.000003 -0.000001 -3.219501 0.558854 -27.856524 0.065178 0.329175 -16.839888 -0.000001 -0.000001 0.000002 -1.619762 -0.518983 -24.050510 -0.721454 -2.479543 -31.968376 0.000000 -0.000002 -0.000004 0.802927 3.627594 -32.921976 -1.527354 -3.551288 -46.793233 -0.000000 -0.000000 -0.000004 1.947539 1.666285 -41.592529 -0.447549 -2.479488 -21.446806 -0.000001 0.000002 0.000000 0.000001 -0.000000 0.000002 0.000001 -0.000012 0.000289 -46.086794 23.140179 42.877745 -0.018800 55.347741 -0.038470 24.754480 30.954202 -27.063388 -19.087162 -12.883159 14.386600 1.473549 -16.414645 -4.476567 -0.000006 0.000001 -0.000002 -7.269113 -2.598615 11.316146 0.490507 -1.347091 36.991847 -0.000003 0.000001 0.000002 -3.072706 -0.819779 28.634767 -0.798300 2.462070 47.203489 0.000003 0.000003 0.000004 -0.860494 -5.980086 43.507854 -3.297363 5.384564 58.584923 -0.000002 -0.000001 0.000004 -6.678239 -10.381633 52.010548 -5.162929 9.271057 67.615615 -0.000000 0.000001 -0.000001 -0.000001 -0.000000 -0.000000 -0.000000 0.000000 -0.000000 -0.000000 0.000000 -0.000000 -0.000000 0.000000 -0.000000 -0.000000 0.000000 -0.000000 -0.000000 0.000000 -0.000000 -0.000000 0.000000 -0.000000 -0.000000 0.000000 -0.000000 -0.000000 0.000000 -0.000000 -0.000000 0.000000 -0.000000 -0.000001 -0.000000 0.000000 -0.000001 -0.000000 0.000000 0.000001 0.000000 -0.000000 
